# xmcd
#
# Track frame offsets:
#	150
#	10361
#	20315
#	34177
#	42323
#	55000
#	64210
#	75654
#	84654
#	92701
#	102121
#	110946
#	122924
#	134300
#	145013
#	157802
#	165856
#	175859
#	186182
#	196846
#
# Disc length: 2779 seconds
# Revision: 0
# Processed by: cddbd v1.5.2PL0 Copyright (c) Steve Scherf et al.
# Submitted via: dBpowerAMP V12.0
#
DISCID=010ad914
DTITLE=Various Artist - Mr. Hotshot's R&B Review Vol. 1
DYEAR=1900
DGENRE=
TTITLE0=Willy White - Everybody Dance
TTITLE1=Jessie Crawford - Please Don't Go
TTITLE2=Mary Hankins - Ants in My Pants
TTITLE3=Earl Connely - I Feel a Little Lonely
TTITLE4=Nelson Sanders - This Love is Here to Stay
TTITLE5=Otis Redding - Shout Bamalama
TTITLE6=James McCleese - Tell Me Why
TTITLE7=Baby Jean - Oh Johnny
TTITLE8=Baby Jean - If You Wanna
TTITLE9=Marty Lewis - I Want to Know
TTITLE10=Chuck and Pauline - Too Smart
TTITLE11=Anthony Lamont - Benny the Skinny Man
TTITLE12=Dan and Dale - Robin's Theme
TTITLE13=Billy Cunningham - My Baby
TTITLE14=Chuck Bradford - Wherever You Are
TTITLE15=Jesse Butler - Dancing Fever
TTITLE16=Davey Jones - Love Your Way
TTITLE17=The Monterays - Push-em Up
TTITLE18=The Ambassadors - I Wonder Why
TTITLE19=Lemme B. Good - Hard Times
EXTD=
EXTT0=
EXTT1=
EXTT2=
EXTT3=
EXTT4=
EXTT5=
EXTT6=
EXTT7=
EXTT8=
EXTT9=
EXTT10=
EXTT11=
EXTT12=
EXTT13=
EXTT14=
EXTT15=
EXTT16=
EXTT17=
EXTT18=
EXTT19=
PLAYORDER=
